<?xml version="1.0" standalone="no"?>
<!DOCTYPE svg PUBLIC "-//W3C//DTD SVG 20010904//EN"
 "http://www.w3.org/TR/2001/REC-SVG-20010904/DTD/svg10.dtd">
<svg version="1.0" xmlns="http://www.w3.org/2000/svg"
 width="747.000000pt" height="747.000000pt" viewBox="0 0 747.000000 747.000000"
 preserveAspectRatio="xMidYMid meet">
<metadata>
Created by potrace 1.14, written by Peter Selinger 2001-2017
</metadata>
<g transform="translate(0.000000,747.000000) scale(0.100000,-0.100000)"
fill="#000000" stroke="none">
<path d="M3618 6945 c-2 -1 -66 -5 -143 -8 -77 -4 -176 -11 -220 -17 -75 -10
-94 -13 -170 -26 -60 -10 -242 -55 -325 -81 -47 -15 -87 -27 -90 -28 -3 -1
-12 -5 -20 -8 -8 -4 -40 -15 -70 -26 -30 -10 -81 -31 -112 -45 -32 -14 -58
-23 -58 -21 0 3 -18 -6 -40 -20 -22 -14 -40 -23 -40 -20 0 2 -15 -4 -32 -14
-18 -10 -70 -37 -115 -60 -46 -24 -83 -47 -83 -52 0 -5 -5 -9 -11 -9 -13 0
-162 -94 -216 -137 -23 -18 -47 -33 -53 -33 -6 0 -28 12 -47 28 -33 24 -52 31
-105 33 -10 0 -53 39 -97 87 -44 48 -102 101 -129 117 -55 33 -66 65 -23 65
19 0 22 3 13 12 -9 9 -24 8 -66 -2 -29 -7 -59 -9 -66 -5 -9 6 -11 4 -5 -4 5
-10 -8 -12 -55 -10 -53 2 -64 0 -73 -17 -7 -11 -11 -80 -10 -174 0 -223 6
-277 32 -304 l22 -23 -22 -6 c-21 -6 -22 -9 -15 -99 3 -51 9 -148 13 -215 l6
-121 -55 -79 c-132 -187 -228 -364 -328 -603 -29 -68 -54 -131 -56 -140 -2 -8
-13 -42 -24 -75 -12 -33 -34 -109 -50 -169 -16 -59 -31 -110 -32 -112 -2 -2
-44 6 -93 17 -50 10 -101 22 -115 25 -14 3 -43 10 -65 16 -34 9 -88 19 -105
20 -25 1 -41 -6 -71 -33 -19 -17 -41 -36 -50 -42 -20 -16 -68 -103 -74 -136
-3 -14 -7 -53 -10 -86 -3 -33 -8 -67 -10 -75 -2 -8 -5 -40 -6 -70 -2 -64 -14
-94 -35 -86 -8 3 -14 -1 -14 -10 0 -20 29 -29 51 -16 22 14 30 15 27 5 -4 -16
15 -78 35 -112 11 -20 25 -46 32 -58 30 -57 100 -132 184 -198 51 -40 80 -78
72 -94 -1 -2 11 -10 28 -17 31 -13 39 -19 91 -66 16 -16 37 -28 45 -28 8 0 16
-3 16 -7 2 -11 6 -40 13 -103 7 -60 9 -77 31 -190 19 -98 20 -104 40 -180 9
-36 18 -72 20 -80 2 -8 22 -71 45 -140 23 -69 43 -129 44 -135 2 -5 13 -32 24
-58 12 -27 22 -50 22 -52 0 -2 18 -42 40 -89 21 -48 40 -90 40 -94 1 -4 5 -11
10 -17 4 -5 24 -41 45 -80 41 -77 135 -230 174 -285 39 -56 105 -145 111 -150
8 -7 52 -62 78 -97 13 -17 51 -60 85 -96 34 -36 72 -76 84 -89 11 -12 33 -34
49 -48 15 -14 32 -38 39 -54 l12 -28 20 21 c11 12 34 42 52 66 28 39 30 45 14
45 -10 0 -36 18 -58 41 -65 67 -85 83 -101 85 -22 3 -44 24 -44 43 -1 17 -4
22 -57 87 -100 122 -163 204 -163 212 0 6 -4 12 -9 14 -29 10 -311 514 -311
555 0 5 -9 28 -20 51 -14 29 -18 48 -12 59 5 9 7 24 5 34 -3 11 0 19 6 19 7 0
10 -4 6 -9 -12 -20 39 -63 78 -65 33 -2 67 -16 39 -16 -17 0 -43 -30 -36 -42
4 -6 9 -6 14 3 6 9 46 13 150 13 78 1 143 -1 145 -4 2 -3 35 -5 75 -4 99 2
113 -10 111 -100 0 -37 -3 -71 -6 -76 -7 -11 -17 -79 -17 -115 0 -54 2 -63 17
-79 12 -11 13 -21 5 -41 -5 -14 -10 -31 -10 -36 0 -16 25 -10 43 12 10 11 25
18 33 15 17 -6 19 5 3 21 -14 14 -3 49 18 57 18 7 56 -22 47 -35 -3 -5 0 -9 6
-9 11 0 14 7 24 53 4 15 11 27 17 27 6 0 22 9 36 20 18 14 30 17 38 10 8 -7
17 -4 30 10 10 11 25 20 34 20 9 0 21 10 26 23 6 12 20 23 33 25 12 2 22 7 22
11 0 4 10 7 21 8 21 2 21 1 3 -12 -18 -13 -18 -14 -1 -21 15 -5 16 -9 5 -15
-9 -6 -10 -9 -1 -9 7 0 10 -7 7 -15 -3 -8 -11 -13 -16 -12 -6 1 -13 -4 -16
-12 -3 -9 0 -11 9 -6 21 12 -22 -27 -60 -53 -18 -13 -39 -21 -46 -18 -8 3 -35
-15 -62 -39 -26 -25 -56 -45 -66 -45 -10 0 -25 -7 -33 -15 -8 -8 -21 -12 -29
-9 -8 4 -17 -1 -21 -9 -3 -8 -23 -28 -45 -43 -30 -21 -43 -24 -51 -16 -19 19
-26 14 -23 -20 2 -17 11 -37 20 -44 15 -11 25 -5 73 42 30 30 60 54 66 54 24
0 113 49 145 78 18 18 38 32 45 32 6 0 24 11 40 25 35 30 50 31 76 5 16 -16
18 -25 10 -40 -6 -11 -8 -20 -4 -20 14 0 -90 -79 -111 -84 -12 -3 -39 -21 -60
-41 -21 -19 -48 -38 -59 -41 -12 -4 -27 -15 -33 -24 -7 -10 -23 -20 -36 -24
-13 -3 -28 -16 -34 -28 -6 -13 -34 -32 -73 -49 -67 -28 -75 -36 -62 -57 7 -10
14 -10 38 2 15 9 32 12 37 7 14 -14 72 22 88 54 8 17 31 39 54 50 23 12 60 42
84 68 24 26 50 47 58 47 8 0 32 18 54 40 22 22 45 40 52 40 36 -1 57 -52 32
-80 -15 -16 -14 -18 9 -24 43 -11 44 -48 2 -98 -20 -23 -36 -45 -36 -50 0 -4
-7 -8 -15 -8 -21 0 -65 -41 -65 -61 0 -10 -11 -19 -25 -23 -14 -4 -34 -15 -45
-26 -16 -16 -25 -18 -40 -10 -31 17 -23 70 11 70 22 0 69 45 69 66 0 8 12 20
28 27 39 18 62 39 62 59 0 12 -5 15 -17 11 -27 -10 -107 -75 -143 -116 -18
-21 -38 -37 -45 -37 -8 0 -17 -9 -20 -20 -4 -11 -17 -27 -30 -36 -30 -20 -76
-89 -77 -117 -2 -49 2 -51 36 -14 18 20 40 37 47 37 8 0 20 14 27 30 22 49 83
30 67 -21 -5 -14 -4 -19 4 -15 7 5 9 1 5 -8 -4 -11 0 -16 11 -16 27 0 52 18
59 43 3 13 17 29 31 35 15 7 24 16 21 21 -3 4 3 16 14 26 10 9 16 23 14 30 -8
19 25 47 47 40 14 -5 17 -2 13 9 -3 8 3 23 13 33 10 10 17 26 15 34 -5 26 26
51 48 39 26 -14 31 -35 12 -61 -9 -13 -17 -32 -17 -42 -2 -24 -25 -38 -49 -31
-13 4 -17 2 -14 -7 6 -18 -38 -105 -57 -112 -8 -4 -12 -15 -10 -27 4 -21 -80
-142 -118 -169 -10 -7 -27 -30 -36 -50 -9 -20 -33 -62 -54 -93 -21 -32 -42
-69 -47 -83 -15 -41 -89 -135 -106 -135 -12 0 -13 -4 -3 -22 37 -69 84 -66
146 10 21 26 43 53 50 60 7 7 17 20 22 29 7 14 13 12 47 -13 22 -16 41 -31 44
-34 14 -14 70 -50 78 -50 5 0 15 -6 21 -14 14 -17 195 -126 209 -126 6 0 12
-4 14 -9 3 -10 252 -131 269 -131 5 0 9 -4 9 -8 0 -5 6 -9 13 -9 6 0 62 -19
122 -41 61 -22 144 -50 185 -61 41 -12 89 -25 105 -31 52 -16 256 -55 350 -66
28 -3 66 -8 85 -11 56 -8 518 -8 600 -1 81 8 142 16 176 23 12 3 39 7 60 10
21 4 54 10 73 15 19 5 38 7 43 4 4 -3 8 0 8 7 0 7 3 10 6 7 3 -4 38 3 77 14
40 11 79 21 88 23 21 4 227 72 254 84 11 4 31 13 45 19 26 11 87 37 155 68
134 60 491 278 560 341 11 10 32 28 47 39 126 97 384 354 463 459 33 45 37 49
66 85 19 23 149 212 176 255 44 71 195 356 198 375 1 3 8 21 16 40 32 74 99
258 119 330 12 41 26 86 30 100 14 38 58 240 64 294 3 26 8 51 10 54 2 4 7 36
10 72 4 36 9 81 11 100 14 106 20 381 11 510 -19 284 -56 484 -85 466 -9 -6
-206 -19 -266 -18 -134 2 -403 40 -444 62 -9 4 -51 15 -93 24 -82 17 -110 27
-283 101 -104 44 -224 103 -235 115 -6 7 -130 80 -135 80 -13 0 -113 79 -108
84 4 4 0 4 -10 0 -9 -3 -17 -2 -17 2 0 10 -2 11 -195 136 -238 155 -399 235
-550 273 -16 5 -34 9 -40 11 -72 20 -263 49 -400 60 -38 3 -90 7 -115 10 -25
2 -79 6 -120 9 -158 11 -213 19 -266 41 -29 12 -35 27 -25 64 3 12 59 29 81
24 74 -16 86 -16 99 0 14 17 18 62 6 74 -4 4 -33 6 -66 5 -48 -2 -63 1 -79 17
-17 17 -18 24 -9 41 14 27 63 47 103 43 66 -7 162 -27 174 -37 6 -5 12 -7 12
-4 0 3 12 2 28 -3 15 -5 90 -29 167 -53 125 -40 273 -86 300 -93 6 -2 60 -16
120 -33 61 -16 121 -32 135 -34 14 -3 45 -10 70 -17 25 -7 54 -14 65 -16 11
-2 43 -8 70 -14 28 -6 61 -13 75 -15 44 -9 223 -36 265 -41 22 -2 51 -6 65 -9
95 -20 573 -35 690 -22 65 8 145 19 185 26 118 21 338 -30 475 -109 44 -26
168 -95 187 -104 13 -6 23 -14 23 -18 0 -4 12 -14 28 -22 15 -8 41 -26 57 -40
17 -14 33 -26 37 -26 13 0 184 -163 268 -256 24 -26 25 -26 28 -7 2 14 -11 35
-39 62 -24 23 -41 41 -39 42 26 4 46 9 87 22 45 15 80 21 163 31 37 5 107 8
127 7 12 -1 46 -61 38 -69 -5 -5 -64 -10 -195 -17 -41 -2 -82 -5 -90 -5 -9 0
-3 -7 13 -16 15 -8 27 -20 27 -26 0 -7 4 -7 13 -1 6 6 44 11 82 13 39 1 94 4
122 5 39 1 57 -2 68 -15 25 -27 10 -47 -33 -43 -20 2 -79 5 -129 6 -100 3 -98
4 -94 -53 0 -14 2 -36 2 -50 4 -58 -2 -90 -14 -90 -7 0 -23 -12 -36 -26 -12
-14 -27 -24 -34 -21 -6 2 -23 -8 -38 -22 -53 -51 -59 -54 -74 -41 -8 7 -12 17
-8 24 3 6 -2 3 -13 -6 -21 -18 -120 -58 -127 -51 -3 2 -7 -4 -11 -13 -5 -13
-1 -15 20 -11 18 3 33 -2 45 -14 11 -11 22 -20 27 -21 15 -3 80 -76 74 -83 -4
-4 -2 -5 3 -4 15 5 105 -84 105 -103 0 -14 5 -15 43 -3 23 7 74 29 112 49 39
20 75 36 82 36 6 0 28 18 49 40 32 33 40 37 47 25 7 -13 19 -4 66 45 l57 60 0
224 -1 225 -30 61 c-21 43 -37 62 -55 67 -37 10 -331 3 -324 -8 5 -9 -44 -29
-73 -29 -22 0 -93 47 -128 84 -6 6 -30 27 -55 46 -72 56 -82 64 -110 90 -22
21 -40 57 -39 80 0 3 -4 17 -10 31 -5 15 -13 46 -16 70 -4 24 -9 47 -12 52 -3
4 -7 18 -9 30 -2 12 -8 42 -14 67 -6 25 -13 68 -16 97 -6 50 -5 55 42 120 27
37 54 75 59 84 6 9 40 60 76 115 69 104 73 110 143 238 44 80 47 105 20 137
-8 9 -12 18 -9 21 11 11 -19 58 -36 58 -10 0 -20 3 -22 8 -11 16 -193 3 -282
-20 -22 -5 -47 -11 -55 -13 -38 -8 -188 -47 -210 -55 -63 -23 -266 -84 -272
-82 -5 1 -8 -3 -8 -10 0 -6 -2 -9 -5 -6 -3 3 -41 -7 -83 -23 -153 -58 -255
-79 -236 -48 3 5 0 9 -5 9 -6 0 -19 8 -29 18 -10 9 -52 46 -94 81 -42 36 -74
69 -71 74 3 6 1 7 -5 3 -14 -8 -94 48 -84 59 4 5 2 5 -4 2 -6 -3 -23 4 -38 16
-62 51 -252 163 -401 237 -137 68 -343 154 -396 165 -8 2 -52 14 -97 28 -45
14 -82 23 -82 20 0 -3 -7 0 -15 7 -8 7 -15 10 -15 7 0 -3 -20 0 -45 7 -25 8
-45 12 -45 10 0 -2 -11 1 -24 6 -13 5 -44 12 -67 15 -24 3 -57 8 -74 11 -109
19 -144 22 -310 29 -77 3 -148 8 -157 9 -9 2 -18 3 -20 1z m267 -179 c17 -3
48 -8 70 -11 46 -5 73 -10 170 -32 38 -8 79 -17 90 -18 11 -2 81 -22 155 -45
74 -23 149 -45 165 -49 74 -19 355 -139 355 -151 0 -15 -88 -46 -155 -55 -22
-3 -51 -8 -65 -11 -47 -9 -256 -24 -345 -25 -42 -1 -208 10 -253 16 -26 3
-107 14 -147 20 -11 2 -40 6 -65 9 -25 3 -56 8 -70 11 -14 3 -54 10 -89 16
-36 5 -68 12 -72 14 -4 3 -24 7 -44 10 -21 2 -45 7 -54 9 -9 3 -36 7 -61 10
-25 3 -56 8 -70 11 -14 3 -43 7 -65 10 -22 3 -56 7 -75 10 -207 32 -513 45
-702 31 -76 -6 -107 3 -71 22 20 11 197 71 222 76 9 1 48 12 86 24 67 20 140
38 195 48 14 3 33 7 42 10 24 7 57 13 108 20 25 3 52 7 60 9 8 2 47 7 85 11
39 3 72 8 74 9 5 6 494 -3 526 -9z m-2546 -213 c59 -58 80 -73 131 -99 34 -17
51 -33 59 -54 5 -17 16 -30 23 -30 18 -1 53 -50 36 -51 -7 -1 -26 -2 -41 -3
-21 -2 -45 9 -85 38 -32 23 -98 66 -149 94 -73 42 -91 57 -86 70 8 21 55 72
66 72 4 0 25 -17 46 -37z m45 28 c11 -4 15 -10 10 -13 -5 -2 -20 1 -34 8 -26
14 -8 18 24 5z m116 -117 c0 -2 -9 0 -20 6 -11 6 -20 13 -20 16 0 2 9 0 20 -6
11 -6 20 -13 20 -16z m-246 4 c7 -7 31 -26 52 -43 21 -16 52 -42 69 -56 16
-14 44 -33 60 -42 17 -9 25 -16 18 -17 -20 0 -123 42 -123 51 0 5 -6 9 -13 9
-8 0 -22 9 -32 20 -10 11 -22 17 -28 13 -5 -3 -7 -1 -4 4 4 6 -2 22 -13 36
-11 14 -20 28 -20 31 0 10 21 6 34 -6z m1811 -24 c61 -4 125 -8 143 -8 17 -1
32 -3 32 -6 0 -3 12 -6 28 -6 32 0 140 -13 162 -19 8 -2 38 -7 65 -11 79 -10
88 -11 146 -23 30 -6 63 -13 74 -15 11 -3 41 -9 68 -15 26 -6 64 -14 85 -17
20 -2 60 -9 87 -14 210 -40 610 -30 796 20 24 7 51 14 60 15 9 2 53 13 98 25
80 22 151 21 151 0 0 -6 5 -10 10 -10 18 0 90 -52 84 -61 -3 -5 1 -6 8 -4 8 3
23 -4 35 -15 12 -11 25 -20 28 -20 7 0 211 -148 249 -181 15 -13 46 -40 67
-60 l40 -37 -23 -25 c-13 -14 -30 -34 -39 -45 -16 -19 -87 -36 -198 -48 -89
-10 -116 -13 -116 -14 0 -1 -29 -3 -65 -6 -36 -3 -76 -7 -90 -9 -101 -18 -717
-27 -825 -12 -27 3 -70 9 -95 12 -25 3 -53 8 -63 11 -10 3 -30 7 -45 9 -35 5
-74 12 -202 37 -58 11 -116 22 -129 24 -13 3 -51 12 -85 20 -34 8 -72 17 -86
20 -14 2 -49 9 -79 15 -30 6 -64 12 -75 14 -50 6 -111 17 -116 20 -3 2 -34 6
-69 10 -34 4 -70 8 -79 10 -15 2 -52 8 -132 20 -28 5 -158 16 -240 21 -272 17
-362 18 -668 14 -75 -1 -86 1 -115 24 -54 44 -85 79 -81 90 9 21 197 155 279
199 45 23 52 25 115 32 25 3 54 8 66 10 11 2 99 7 195 11 96 3 175 7 177 9 5
4 260 -3 367 -11z m3619 -144 c-6 -6 -28 -13 -50 -15 l-39 -5 45 14 c25 7 47
14 50 15 2 0 -1 -4 -6 -9z m-94 -20 c0 -5 -5 -10 -11 -10 -5 0 -7 5 -4 10 3 6
8 10 11 10 2 0 4 -4 4 -10z m190 -19 c0 -16 -15 -23 -92 -41 -51 -12 -154 -39
-228 -60 -126 -36 -225 -63 -225 -61 0 0 -22 -7 -50 -15 -27 -9 -68 -18 -90
-21 -22 -3 -44 -9 -49 -13 -13 -13 -36 0 -36 20 0 18 37 38 81 44 13 2 31 6
39 9 22 9 172 50 190 52 8 1 22 5 30 8 20 7 147 43 185 53 17 4 32 8 35 9 27
6 92 18 119 21 18 2 36 6 39 9 3 3 16 5 29 5 16 0 23 -6 23 -19z m-34 -95 c-4
-29 -46 -55 -99 -62 -16 -2 -37 -9 -48 -14 -10 -6 -19 -9 -19 -6 0 3 -15 0
-32 -5 -33 -10 -54 -15 -93 -23 -11 -3 -67 -16 -125 -31 -58 -15 -112 -28
-120 -30 -8 -2 -41 -10 -73 -19 -91 -24 -140 -29 -135 -15 4 12 60 35 103 43
11 2 52 13 89 25 37 12 78 23 90 25 11 3 59 16 106 30 82 24 223 62 265 72 31
7 90 22 92 23 1 1 0 -5 -1 -13z m-176 -6 c0 -5 -10 -10 -22 -9 -22 0 -22 1 -3
9 11 5 21 9 23 9 1 1 2 -3 2 -9z m-4790 -37 c0 12 307 -297 366 -368 27 -33
55 -64 61 -70 19 -15 43 -93 43 -139 0 -38 -19 -115 -39 -161 -26 -60 -35 -81
-38 -95 -2 -8 -5 -19 -7 -25 -23 -77 -28 -118 -32 -260 -2 -101 2 -161 14
-217 9 -43 13 -80 9 -84 -4 -4 -60 -8 -124 -10 -127 -3 -292 -16 -353 -28 -14
-3 -45 -7 -71 -10 -25 -3 -52 -7 -60 -10 -7 -3 -31 -7 -51 -10 -53 -8 -121
-24 -151 -35 -35 -14 -48 5 -41 60 3 24 8 51 11 59 3 8 7 20 7 25 3 24 51 136
88 205 56 103 69 121 81 113 6 -3 7 -1 3 6 -11 17 122 178 257 309 37 36 67
72 67 79 0 7 4 13 8 13 18 0 56 97 59 149 2 52 -11 91 -72 226 -43 93 -58 153
-60 235 -1 52 4 68 16 49 5 -8 9 -10 9 -6z m4535 -33 c-3 -5 -12 -10 -18 -10
-7 0 -6 4 3 10 19 12 23 12 15 0z m-373 -70 c-2 -48 -26 -136 -53 -196 -10
-22 -19 -52 -21 -67 -2 -14 -7 -29 -11 -33 -16 -16 -5 -23 26 -18 17 2 39 5
47 5 36 1 44 8 28 27 -18 20 -29 60 -19 66 4 3 8 -5 8 -16 2 -27 41 -68 65
-68 11 0 16 -4 13 -10 -7 -12 55 -52 71 -46 19 7 39 -40 27 -66 -8 -19 -2 -29
49 -80 32 -32 58 -62 58 -68 0 -5 3 -10 8 -10 10 0 86 -120 79 -126 -2 -3 -46
11 -96 30 -51 20 -121 41 -156 48 -83 17 -249 14 -345 -7 -23 -5 -47 -8 -181
-19 -72 -6 -73 -1 -32 99 40 100 46 151 28 255 -15 89 -11 109 31 158 40 47
184 135 207 127 8 -4 23 2 33 13 17 17 65 43 104 55 24 7 33 -9 32 -53z m79 0
c41 12 36 -3 -6 -16 -33 -10 -36 -9 -41 12 -3 13 -2 29 3 36 5 9 9 5 11 -14 3
-24 6 -26 33 -18z m669 22 c0 -12 -64 -72 -76 -72 -7 0 -14 -4 -16 -9 -1 -6
-21 -12 -43 -15 -47 -6 -141 -23 -205 -36 -25 -5 -56 -12 -70 -14 -14 -3 -36
-7 -50 -10 -14 -3 -36 -8 -50 -11 -70 -15 -183 -35 -197 -35 -33 0 -6 38 32
46 6 1 13 3 18 4 4 1 12 4 17 5 6 1 11 3 13 5 1 1 15 4 30 6 16 3 63 16 105
28 69 21 117 35 147 41 6 2 45 12 86 23 42 12 88 23 102 26 15 4 39 9 55 12
15 4 35 7 44 8 10 1 20 5 24 8 7 7 34 -1 34 -10z m-3857 -32 c18 -5 74 -11
125 -14 51 -3 96 -7 100 -9 4 -3 30 -7 57 -11 47 -6 71 -10 128 -20 88 -17
135 -27 185 -40 31 -8 74 -17 96 -20 21 -4 42 -8 46 -11 5 -3 21 -7 37 -9 24
-3 201 -43 283 -63 14 -4 32 -8 40 -9 34 -5 84 -15 89 -19 4 -2 25 -6 48 -10
23 -3 57 -8 75 -11 18 -3 56 -7 85 -8 28 -2 55 -6 60 -9 11 -7 586 0 628 7 17
3 54 8 84 11 48 5 158 20 221 30 14 2 45 6 70 9 25 3 56 9 70 12 36 8 92 6
102 -4 5 -5 10 -35 12 -68 3 -32 9 -74 15 -93 16 -51 5 -107 -37 -189 -55
-109 -50 -107 -215 -106 -138 1 -182 4 -297 19 -59 8 -85 13 -85 15 0 1 -12 3
-26 5 -15 2 -82 15 -150 30 -68 14 -155 33 -194 40 -106 22 -115 24 -135 30
-18 6 -39 11 -89 21 -14 3 -28 7 -33 10 -9 6 -47 15 -65 16 -7 1 -13 5 -13 10
0 5 -4 7 -9 4 -4 -3 -32 4 -62 15 -96 36 -274 101 -284 103 -5 2 -17 6 -25 9
-27 11 -124 38 -160 45 -19 4 -122 6 -228 5 -218 -2 -238 -8 -268 -75 -17 -39
-36 -55 -71 -61 -49 -9 -108 -31 -163 -59 -51 -26 -74 -31 -148 -34 -48 -2
-116 -7 -152 -12 -70 -8 -238 -7 -248 2 -3 3 -6 34 -7 68 -1 35 -5 74 -9 86
-9 27 -66 115 -78 120 -4 2 -8 10 -8 17 0 8 -9 19 -20 25 -11 6 -20 15 -20 19
0 9 -20 34 -87 111 -43 49 -38 55 53 65 26 2 49 6 51 9 8 8 595 4 626 -4z
m3167 -94 c0 -2 -7 -7 -16 -10 -8 -3 -12 -2 -9 4 6 10 25 14 25 6z m553 -42
c-8 -21 -82 -61 -128 -68 -48 -7 -83 -13 -150 -26 -58 -11 -128 -21 -168 -25
-15 -1 -30 -4 -32 -7 -8 -8 -79 2 -89 13 -22 21 -2 27 294 85 212 41 266 50
272 47 4 -2 5 -10 1 -19z m-4814 -58 c13 -7 19 -16 14 -19 -5 -3 -22 3 -39 14
-32 21 -12 26 25 5z m4731 -63 c0 -13 -40 -44 -62 -48 -79 -16 -313 -24 -325
-12 -11 12 2 16 83 27 43 6 90 13 104 16 14 2 48 7 75 10 28 3 51 7 52 8 7 6
73 5 73 -1z m-5146 -62 c-8 -8 -43 -8 -38 0 2 4 13 7 24 6 10 -1 17 -3 14 -6z
m1 -41 c-3 -5 -12 -10 -18 -10 -7 0 -6 4 3 10 19 12 23 12 15 0z m5080 -12 c4
-3 -2 -11 -12 -17 -26 -13 -216 -8 -221 7 -2 6 11 12 30 14 59 6 196 3 203 -4z
m-5021 -38 c-5 -5 -10 3 -11 18 -1 22 0 24 9 8 6 -10 6 -22 2 -26z m71 30 c3
-5 1 -10 -4 -10 -6 0 -11 5 -11 10 0 6 2 10 4 10 3 0 8 -4 11 -10z m25 -35
c-7 -9 -15 -13 -19 -10 -3 3 1 10 9 15 21 14 24 12 10 -5z m-148 -40 c21 -9
35 -22 31 -28 -3 -6 -1 -7 5 -3 16 10 52 -12 46 -28 -3 -7 2 -16 12 -20 14 -5
15 -4 4 9 -16 20 -1 19 28 -1 22 -15 22 -17 5 -30 -16 -13 -15 -13 10 -2 20 8
31 9 35 1 4 -5 24 -16 45 -24 20 -7 37 -17 37 -23 0 -5 3 -6 7 -3 6 7 32 -21
33 -36 0 -4 -10 -11 -22 -16 -26 -9 -71 6 -61 22 3 5 -3 6 -16 2 -12 -4 -21
-2 -21 4 0 6 -6 10 -12 9 -8 -2 -13 6 -12 19 1 13 -3 20 -7 17 -5 -3 -7 -10
-4 -15 4 -5 -1 -9 -9 -9 -9 0 -16 4 -16 9 0 5 -20 17 -45 28 -27 11 -43 23
-40 31 2 6 0 12 -4 12 -5 0 -11 -5 -13 -12 -2 -6 -20 4 -41 24 -38 37 -46 57
-24 59 9 0 9 2 -1 6 -6 2 -10 9 -6 14 3 5 8 8 12 5 4 -2 24 -11 44 -21z m5061
6 c18 -18 -10 -31 -64 -31 -32 0 -51 6 -62 18 -10 10 -15 21 -12 24 10 9 127
0 138 -11z m-4883 -25 c0 -3 -4 -8 -10 -11 -5 -3 -10 -1 -10 4 0 6 5 11 10 11
6 0 10 -2 10 -4z m35 -17 c11 -16 1 -19 -13 -3 -7 8 -8 14 -3 14 5 0 13 -5 16
-11z m102 -48 c0 -11 -5 -18 -9 -15 -4 3 -5 11 -1 19 7 21 12 19 10 -4z m4779
6 c11 -11 -5 -24 -28 -21 -13 1 -35 3 -50 3 -17 1 -28 7 -28 15 0 10 13 13 50
12 27 -2 53 -5 56 -9z m-3498 -22 c12 1 22 -1 22 -5 0 -8 1 -8 120 -15 139 -8
145 -9 142 -25 -3 -12 -1 -12 9 -3 9 9 24 6 66 -13 30 -13 78 -26 106 -29 29
-3 66 -7 82 -10 17 -2 62 -7 100 -10 39 -3 77 -8 85 -10 15 -4 71 -10 210 -21
171 -14 224 -21 345 -49 11 -2 38 -9 60 -15 22 -6 46 -12 53 -12 6 -1 12 -4
12 -8 0 -4 6 -7 13 -8 23 -2 42 -8 67 -22 14 -8 27 -15 30 -15 38 -5 213 -122
204 -136 -3 -5 3 -9 13 -10 12 0 14 -2 4 -6 -11 -5 -11 -7 0 -14 11 -7 9 -9
-6 -10 -11 0 -29 -2 -40 -5 -37 -7 -195 -21 -350 -30 -139 -7 -544 -8 -694 0
-67 4 -121 11 -130 19 -12 9 -13 9 -7 0 5 -10 -2 -12 -31 -8 -21 2 -74 7 -118
10 -92 8 -142 12 -205 19 -25 3 -72 7 -105 10 -33 3 -80 8 -105 10 -99 11
-177 18 -218 21 -24 2 -54 6 -67 9 -12 3 -49 8 -81 11 -59 6 -92 10 -161 21
-21 3 -49 7 -63 9 -35 4 -68 13 -81 21 -16 9 1 105 27 158 8 16 14 35 14 43 0
7 9 22 20 33 11 11 20 22 20 25 0 3 0 10 0 15 0 6 5 10 11 10 5 0 7 -6 3 -12
-6 -10 -5 -10 7 -1 15 12 31 16 124 28 22 3 51 8 65 10 31 5 154 17 197 19 18
1 34 4 37 7 2 2 42 1 88 -2 45 -3 93 -5 106 -4z m-1713 -3 c-3 -3 0 -11 6 -18
14 -18 -6 -28 -28 -14 -16 10 -16 11 2 6 19 -6 19 -5 3 7 -19 15 -17 24 7 24
8 0 13 -3 10 -5z m135 -64 c0 -4 7 -5 15 -2 9 4 18 -2 24 -17 5 -13 10 -19 10
-13 1 14 71 -15 71 -29 0 -4 4 -5 10 -2 5 3 20 -1 33 -10 13 -8 26 -13 28 -11
3 3 6 -5 7 -18 2 -30 -33 -42 -48 -18 -8 14 -9 14 -10 2 0 -9 -3 -11 -8 -5
-12 17 -47 41 -38 28 11 -19 -5 -15 -34 7 -14 11 -29 20 -34 20 -21 0 -75 51
-70 65 4 10 0 15 -12 16 -17 0 -17 1 1 8 19 8 55 -6 55 -21z m5093 -2 c3 -6
-8 -11 -26 -11 -17 0 -32 5 -34 11 -2 6 10 10 26 10 17 0 32 -4 34 -10z
m-5279 -33 c4 -5 11 -8 14 -9 16 -2 56 -23 45 -23 -6 -1 -10 -9 -8 -19 4 -24
-10 -48 -19 -33 -4 6 -3 11 3 11 5 0 8 10 6 21 -6 32 -15 36 -15 8 0 -14 -6
-31 -12 -38 -9 -9 -9 -12 -1 -7 6 3 13 0 16 -6 5 -18 -3 -48 -14 -48 -11 0
-12 13 -1 26 4 5 0 2 -9 -8 -9 -9 -19 -15 -21 -13 -3 3 -5 -2 -5 -10 0 -10 4
-12 12 -5 6 5 17 5 25 0 12 -8 12 -10 -3 -16 -9 -3 -15 -9 -13 -13 3 -4 1 -13
-3 -20 -6 -10 -10 -9 -14 4 -5 11 -3 14 6 9 6 -4 10 -5 7 -1 -7 8 -20 8 -21 0
-3 -20 -21 -43 -30 -37 -5 3 -16 0 -24 -6 -8 -7 -15 -10 -15 -6 0 3 -11 1 -24
-4 -19 -7 -28 -5 -38 7 -9 12 -10 15 0 9 7 -4 12 -2 13 6 2 41 8 58 31 97 15
25 28 38 33 32 8 -13 25 -5 25 12 0 8 -3 8 -9 -1 -7 -11 -9 -11 -14 2 -7 18 8
30 26 20 9 -6 9 -4 -1 8 -15 19 -5 51 15 44 8 -3 11 -1 8 4 -7 12 18 14 29 3z
m5311 -31 c3 -8 0 -19 -6 -23 -17 -10 -64 5 -67 23 -4 22 64 22 73 0z m-5121
-63 c-9 -10 -21 -16 -26 -13 -6 4 -5 10 3 15 11 7 10 9 -3 9 -10 0 -18 4 -18
8 0 17 13 20 36 10 23 -11 23 -12 8 -29z m5143 -5 c7 -21 -26 -23 -49 -3 l-23
19 34 -2 c19 -2 36 -8 38 -14z m-5123 -15 c-3 -5 -10 -7 -15 -3 -5 3 -7 10 -3
15 3 5 10 7 15 3 5 -3 7 -10 3 -15z m47 4 c12 -14 12 -16 0 -8 -10 5 -12 4 -7
-4 6 -9 11 -9 22 0 11 9 14 9 14 0 0 -7 4 -10 9 -6 5 3 13 0 17 -6 4 -8 3 -9
-4 -5 -7 4 -12 2 -12 -3 0 -6 8 -11 17 -11 13 0 14 -3 5 -12 -14 -14 -45 8
-35 26 4 6 -2 4 -12 -4 -14 -11 -19 -12 -22 -2 -3 6 -11 12 -19 12 -17 0 -18
12 -2 28 15 15 13 15 29 -5z m-89 -57 c3 3 9 0 14 -7 5 -8 3 -10 -6 -4 -9 5
-11 4 -6 -4 4 -6 11 -9 16 -6 13 8 79 -28 80 -43 0 -26 -33 -24 -86 4 -30 16
-54 33 -54 37 0 5 -6 5 -12 1 -8 -5 -7 0 2 11 9 11 10 16 3 11 -7 -4 -13 -3
-13 3 0 16 24 19 41 5 9 -8 18 -11 21 -8z m-29 -102 c16 -6 22 -17 18 -38 -1
-5 4 -4 12 2 11 9 16 7 25 -12 9 -20 8 -25 -5 -30 -9 -4 -19 -3 -22 1 -3 4
-13 9 -21 11 -27 5 -79 36 -85 50 -9 24 13 42 38 31 12 -5 30 -12 40 -15z
m-186 -28 c-3 -8 -1 -16 5 -18 7 -3 5 -10 -5 -20 -12 -12 -13 -18 -4 -28 9
-10 9 -11 -2 -5 -11 6 -13 3 -8 -16 6 -23 5 -23 -9 -4 -13 18 -14 17 -8 -15 6
-29 5 -33 -11 -26 -14 5 -15 3 -8 -6 7 -8 7 -21 2 -33 -9 -19 -9 -18 -5 2 3
19 1 21 -14 13 -9 -5 -21 -6 -25 -2 -5 4 -5 1 -1 -6 4 -7 12 -10 17 -7 5 4 9
2 9 -4 0 -5 -6 -12 -12 -14 -7 -3 -4 -6 8 -6 11 -1 21 -7 21 -15 0 -8 -6 -12
-14 -9 -14 5 -19 -12 -5 -20 4 -2 1 -2 -5 -1 -7 2 -13 -1 -13 -6 0 -6 5 -10
10 -10 9 0 9 -15 -2 -60 -1 -8 -10 -21 -18 -28 -8 -8 -9 -11 -3 -7 9 4 11 1 7
-9 -6 -16 -17 -20 -41 -17 -7 1 -13 -4 -13 -11 0 -9 -3 -9 -11 -1 -9 9 -16 9
-31 0 -15 -10 -21 -9 -28 3 -8 12 -10 12 -10 1 0 -11 -3 -11 -15 -1 -18 15
-20 34 -2 23 6 -4 4 5 -6 20 -9 15 -13 27 -7 27 5 0 9 3 9 8 -1 4 -1 15 0 25
1 21 18 23 18 2 0 -8 -4 -15 -8 -15 -11 0 -5 -25 6 -27 6 -1 9 5 7 14 -2 10 1
12 10 7 10 -6 11 -5 1 8 -15 18 -5 32 12 18 8 -7 12 -5 12 5 0 8 -4 12 -8 10
-3 -3 -12 2 -19 10 -12 15 -11 16 12 19 15 1 23 26 8 26 -6 0 -8 -6 -4 -12 4
-7 4 -10 -1 -6 -10 10 -37 -11 -29 -23 3 -5 0 -9 -5 -9 -17 0 -13 15 13 43 13
14 27 23 32 19 4 -4 4 -1 0 6 -6 11 -12 10 -26 -3 -18 -16 -18 -16 -13 5 5 18
11 21 33 17 18 -4 27 -2 27 7 0 8 -9 11 -24 8 -28 -5 -28 -6 -3 46 12 24 18
48 14 54 -4 7 -3 8 4 4 6 -4 21 5 34 19 23 26 50 36 28 10 -11 -13 -10 -14 5
-9 13 5 16 4 11 -4 -4 -7 -2 -12 4 -12 6 0 10 8 8 17 -2 10 2 18 7 18 6 0 16
4 24 9 11 7 13 5 8 -7 -4 -12 -2 -14 10 -10 8 3 19 0 24 -8 6 -9 9 -10 9 -2 0
7 -8 17 -17 23 -17 11 -17 11 0 6 9 -3 17 -1 17 4 0 6 3 10 6 10 3 0 4 -6 1
-14z m1253 -51 c52 -3 124 -8 160 -11 36 -2 97 -7 135 -10 39 -2 95 -6 125 -9
30 -2 98 -7 150 -10 94 -6 138 -10 215 -19 22 -2 72 -7 110 -11 39 -4 88 -8
110 -11 22 -2 96 -6 165 -9 169 -7 291 -15 315 -19 11 -3 24 -5 30 -5 5 -1 -7
-12 -28 -26 -20 -14 -42 -23 -47 -20 -6 3 -10 2 -10 -3 0 -5 -17 -14 -37 -20
-127 -34 -196 -52 -230 -57 -21 -3 -49 -7 -60 -9 -22 -5 -77 -11 -188 -21 -33
-3 -82 -8 -110 -10 -27 -3 -68 -7 -90 -10 -46 -4 -88 -11 -163 -26 -30 -6 -56
-8 -59 -6 -3 3 -25 -3 -49 -13 -24 -11 -44 -16 -44 -12 0 4 -4 2 -8 -5 -4 -7
-27 -21 -51 -31 -39 -18 -47 -18 -89 -6 -25 8 -64 16 -85 19 -21 3 -42 7 -46
9 -3 2 -26 7 -51 10 -46 6 -97 16 -115 21 -51 15 -58 21 -80 69 -45 101 -72
238 -50 263 5 7 25 10 45 8 19 -2 78 -7 130 -10z m-1120 -47 c0 -10 4 -18 10
-18 5 0 7 6 4 14 -3 8 0 17 7 22 8 4 10 3 5 -4 -5 -8 0 -12 13 -12 11 0 25 -9
30 -19 9 -15 7 -20 -9 -24 -23 -6 -26 3 -7 23 7 8 4 7 -11 -2 -21 -14 -27 -14
-63 0 -33 13 -37 17 -26 30 9 13 9 14 0 8 -7 -4 -13 -3 -13 3 0 15 23 19 43 7
9 -6 17 -19 17 -28z m3548 -14 c15 -10 35 -26 46 -36 11 -10 23 -18 28 -18 4
0 16 -8 26 -17 10 -10 51 -40 91 -68 41 -27 88 -60 105 -71 62 -42 63 -45 17
-137 -80 -159 -99 -184 -157 -198 -47 -11 -243 -23 -374 -23 -103 0 -308 11
-318 18 -4 2 -32 7 -62 11 -77 10 -95 13 -95 15 0 1 -13 3 -30 5 -16 1 -30 3
-30 4 0 3 -31 10 -157 32 -38 7 -68 16 -68 20 0 11 17 20 43 24 72 9 258 79
277 104 3 4 26 22 53 41 26 18 47 36 47 40 0 3 24 17 53 30 128 57 126 82 -15
128 -55 18 -83 32 -83 42 0 8 7 15 15 16 8 1 17 2 20 3 6 3 43 6 160 15 47 4
96 9 110 11 14 2 54 7 90 10 36 4 66 8 67 8 1 1 27 3 58 5 41 2 64 -2 83 -14z
m-3578 -54 c0 -3 9 -11 21 -18 14 -9 19 -10 14 -2 -6 9 -2 9 14 1 28 -15 27
-37 -1 -36 -30 0 -50 14 -42 27 4 7 2 8 -5 4 -6 -4 -9 -12 -6 -17 10 -15 -11
-10 -25 6 -6 8 -9 20 -5 27 4 7 -1 4 -9 -6 -13 -16 -16 -16 -16 -5 0 9 3 19 6
22 8 8 54 5 54 -3z m-36 -102 c5 2 16 -4 26 -13 9 -8 20 -12 23 -8 4 3 7 1 7
-6 0 -7 5 -9 12 -5 6 4 8 3 5 -3 -10 -16 -73 -11 -69 6 2 11 0 12 -10 4 -10
-8 -20 -8 -38 2 -14 8 -19 14 -11 15 8 0 11 6 7 15 -5 13 -2 14 17 3 12 -7 26
-11 31 -10z m2773 -77 c10 -9 20 -17 23 -18 24 -2 50 -17 50 -29 0 -8 4 -14 9
-14 13 0 21 -40 8 -41 -45 -5 -104 20 -164 69 -24 19 -40 38 -37 43 3 5 0 8
-6 7 -7 -2 -14 4 -15 13 -3 15 2 15 55 2 32 -8 67 -23 77 -32z m3323 5 c90 -4
100 -8 100 -41 0 -23 -2 -24 -72 -20 -72 3 -171 19 -189 30 -5 4 -9 12 -9 20
0 15 32 23 68 18 13 -2 59 -5 102 -7z m-6420 -6 c0 -5 -2 -10 -4 -10 -3 0 -8
5 -11 10 -3 6 -1 10 4 10 6 0 11 -4 11 -10z m280 -21 c-12 -9 -12 -10 3 -5 9
3 24 9 32 12 8 3 15 2 15 -4 0 -6 8 -9 18 -7 25 4 35 -5 21 -21 -8 -10 -23
-13 -48 -8 -59 10 -71 15 -71 29 0 7 8 15 18 17 24 6 29 -1 12 -13z m-286 -15
c3 -8 2 -12 -4 -9 -6 3 -10 10 -10 16 0 14 7 11 14 -7z m4433 -54 c2 0 1 -5
-3 -12 -4 -7 -3 -8 4 -4 12 7 72 -20 84 -38 4 -6 8 -8 8 -4 0 11 102 -39 111
-54 7 -10 9 -10 9 0 0 9 5 10 18 3 29 -15 202 -71 298 -96 86 -22 123 -30 210
-40 22 -3 54 -10 72 -16 30 -10 33 -14 27 -37 -4 -15 -10 -29 -13 -32 -4 -3
-13 -18 -20 -33 -6 -15 -17 -33 -22 -40 -45 -53 -60 -73 -60 -81 0 -4 -7 -6
-14 -3 -10 4 -13 1 -10 -7 7 -18 -150 -181 -165 -172 -6 4 -9 2 -6 -6 3 -8
-16 -30 -47 -53 -29 -22 -59 -46 -66 -53 -8 -6 -18 -10 -23 -7 -5 4 -9 2 -9
-3 0 -23 -225 -106 -317 -117 -26 -3 -72 -9 -102 -13 l-55 -7 -22 -55 c-22
-53 -34 -91 -33 -99 0 -2 -3 -7 -8 -10 -4 -3 -18 -27 -31 -52 -29 -57 -52 -87
-121 -156 -55 -55 -103 -87 -115 -76 -3 4 -6 1 -6 -5 0 -7 -6 -12 -14 -12 -8
0 -16 -5 -18 -11 -5 -14 -119 -23 -138 -10 -31 21 -16 492 21 646 5 22 11 52
14 68 8 52 66 157 115 208 28 29 50 57 50 63 0 6 5 4 10 -4 9 -13 10 -13 10 0
0 8 22 40 50 70 27 30 49 59 50 63 0 5 5 5 10 2 6 -4 10 -3 9 2 -3 19 2 31 25
58 14 16 33 45 43 64 10 20 21 38 24 41 3 3 17 28 30 55 13 28 33 62 44 77 19
25 21 25 54 12 18 -8 35 -14 38 -14z m1950 14 c37 -9 81 -18 97 -21 37 -6 56
-25 56 -56 0 -31 -7 -37 -33 -27 -25 9 -61 21 -64 21 -2 0 -21 6 -43 14 -43
15 -42 15 -65 15 -16 0 -65 46 -65 60 0 14 40 12 117 -6z m-6246 -23 c7 -27 6
-71 -2 -71 -4 0 -5 -8 -2 -17 5 -12 2 -15 -10 -10 -9 3 -19 1 -23 -5 -4 -7 -3
-8 4 -4 7 4 12 2 12 -4 0 -6 5 -8 10 -5 6 3 10 4 10 1 0 -3 -17 -12 -37 -22
-101 -44 -123 -50 -123 -32 0 10 -2 10 -9 -1 -16 -25 -31 -1 -31 49 0 39 5 52
23 66 15 11 16 15 5 11 -22 -8 -23 0 -3 19 8 9 19 12 25 9 5 -3 10 -2 10 4 0
13 138 25 141 12z m177 -14 c6 3 12 0 12 -7 0 -6 5 -8 10 -5 6 3 10 -2 10 -11
0 -10 -3 -14 -7 -11 -3 4 -12 -1 -19 -11 -12 -15 -15 -15 -24 -2 -8 13 -10 12
-10 -3 0 -13 -7 -17 -30 -15 -38 3 -44 20 -19 52 16 20 25 23 42 17 12 -4 28
-6 35 -4z m1067 0 c60 -7 111 -15 145 -22 14 -3 45 -8 70 -11 49 -6 185 -59
211 -80 8 -8 19 -14 24 -14 16 0 85 -86 91 -113 8 -38 -4 -116 -22 -142 -25
-36 -117 -125 -129 -125 -6 0 -22 -12 -36 -26 -13 -14 -41 -34 -61 -45 -20
-10 -57 -32 -81 -49 -25 -16 -50 -30 -56 -30 -6 0 -29 -11 -50 -25 -51 -32
-183 -75 -301 -99 -14 -3 -36 -7 -49 -10 -14 -3 -47 -8 -75 -11 -80 -9 -117
-13 -176 -21 -127 -16 -472 -9 -580 12 -14 2 -36 7 -50 9 -43 8 -162 33 -234
49 -44 10 -74 12 -81 6 -11 -9 -80 9 -118 30 -9 6 -28 8 -41 4 -28 -7 -66 11
-66 30 0 12 -45 36 -72 40 -17 2 -88 72 -88 86 0 23 30 53 100 100 33 22 60
47 60 54 0 7 11 23 25 36 14 13 25 28 25 34 0 7 21 10 52 10 43 -1 66 5 123
35 39 21 106 52 150 70 44 18 94 38 110 46 55 24 308 102 390 119 74 16 125
27 145 30 14 3 25 5 25 6 0 1 16 3 35 5 123 13 155 17 159 20 5 6 370 -1 426
-8z m5023 -79 c6 -6 12 -7 12 -3 0 4 6 3 13 -2 6 -6 24 -13 38 -17 32 -7 43
-30 28 -57 -8 -16 -13 -18 -25 -8 -8 6 -14 9 -14 6 0 -4 -21 7 -47 23 -27 16
-65 37 -85 46 -21 9 -35 20 -32 25 3 5 -1 9 -9 9 -19 0 -30 27 -14 33 12 4
112 -37 135 -55z m-142 -17 c-3 -4 5 -7 17 -7 12 1 21 -4 20 -11 -2 -7 4 -10
12 -7 8 4 15 1 15 -5 0 -6 5 -11 11 -11 6 0 30 -14 55 -30 24 -17 44 -28 44
-24 0 3 7 1 15 -6 17 -14 6 -44 -20 -54 -17 -6 -49 17 -38 28 4 3 -1 6 -9 6
-9 0 -33 16 -54 35 -60 53 -64 56 -64 50 0 -3 -12 5 -26 19 -30 27 -25 53 7
36 11 -6 17 -14 15 -19z m-16 -69 c25 -20 52 -44 61 -54 9 -10 21 -18 26 -18
11 0 53 -46 53 -59 0 -19 -41 -19 -53 0 -6 10 -16 19 -20 19 -5 0 -31 23 -59
50 -28 28 -54 50 -60 50 -5 0 -7 4 -3 9 3 5 -4 12 -15 16 -11 4 -20 15 -20 26
0 17 3 18 23 8 12 -6 42 -28 67 -47z m-6755 39 c10 -5 24 -9 55 -15 72 -14 89
-20 84 -28 -4 -6 0 -6 12 0 14 7 25 6 38 -4 10 -7 23 -11 28 -8 5 3 15 0 23
-6 8 -7 15 -9 15 -5 0 4 6 2 13 -4 8 -6 17 -8 20 -4 4 3 12 1 19 -4 7 -6 26
-13 42 -17 23 -6 27 -9 15 -17 -7 -5 -21 -9 -29 -9 -13 0 -13 1 0 10 9 6 10
10 3 10 -6 0 -14 -4 -17 -9 -4 -5 -27 -4 -56 4 -28 7 -50 11 -50 8 0 -3 -8 3
-17 14 -10 10 -14 13 -9 6 7 -11 2 -13 -25 -8 -67 12 -139 37 -139 48 0 7 -4
6 -9 -2 -7 -11 -13 -12 -23 -3 -8 6 -30 12 -49 13 -26 2 -35 8 -36 21 -2 15 6
18 40 16 23 0 47 -3 52 -7z m3245 -5 c67 -8 112 -15 140 -22 14 -3 32 -6 40
-6 8 0 29 -4 45 -8 17 -5 48 -11 70 -14 22 -2 63 -10 90 -16 28 -6 64 -13 80
-15 59 -7 120 -15 145 -20 29 -6 90 -13 170 -20 30 -3 159 -7 285 -10 127 -2
238 -4 248 -5 14 0 17 -5 11 -22 -7 -23 -12 -29 -115 -140 -59 -65 -155 -198
-141 -198 3 0 -2 -6 -13 -14 -19 -13 -74 -27 -125 -32 -14 -1 -47 -5 -75 -8
-237 -28 -446 -22 -695 20 -139 23 -144 24 -170 33 -14 5 -52 15 -85 22 -33 7
-62 13 -65 14 -3 1 -25 5 -50 10 -25 5 -47 9 -50 10 -119 28 -174 33 -389 40
-85 3 -156 7 -158 9 -7 7 57 91 132 172 84 92 149 140 230 169 28 9 57 20 65
23 16 5 34 9 65 14 11 2 25 6 30 9 6 3 28 7 50 8 22 2 41 4 42 5 4 4 144 -2
193 -8z m3424 -55 c16 -14 53 -48 82 -76 29 -27 61 -56 70 -64 13 -11 13 -15
2 -22 -22 -14 -47 -10 -57 10 -6 10 -7 22 -3 26 4 3 2 5 -5 3 -16 -4 -163 130
-163 149 0 20 38 7 74 -26z m-6794 5 c0 -2 -7 -7 -16 -10 -8 -3 -12 -2 -9 4 6
10 25 14 25 6z m6681 -7 c12 -6 18 -17 15 -25 -3 -8 -1 -12 4 -9 14 9 48 -12
55 -35 3 -11 9 -19 13 -17 4 1 16 -7 27 -18 12 -11 33 -29 48 -40 14 -11 29
-25 31 -32 7 -17 -21 -43 -40 -36 -20 8 -95 84 -89 92 2 4 -6 8 -17 8 -29 3
-33 10 -17 30 12 16 12 17 -2 5 -14 -10 -22 -6 -54 30 -38 42 -38 48 3 57 2 1
12 -4 23 -10z m-6676 -19 c3 -5 1 -10 -4 -10 -6 0 -11 5 -11 10 0 6 2 10 4 10
3 0 8 -4 11 -10z m65 2 c0 -4 -6 -14 -12 -21 -8 -8 -8 -11 -2 -8 7 4 18 -1 25
-11 12 -15 12 -16 -1 -6 -8 6 -23 10 -32 9 -21 -4 -23 6 -5 24 10 11 10 13 0
7 -7 -4 -13 -2 -13 3 0 6 9 11 20 11 11 0 20 -4 20 -8z m50 -7 c13 2 29 0 37
-6 7 -7 13 -8 13 -5 0 4 6 4 13 -1 6 -4 18 -8 25 -9 21 -4 27 -13 15 -25 -7
-7 -15 -5 -27 6 -9 9 -16 14 -16 10 0 -3 -8 -2 -17 3 -10 5 -27 6 -38 2 -25
-9 -55 9 -48 28 4 9 8 10 12 3 4 -6 18 -9 31 -6z m6195 -31 c2 -16 6 -42 9
-59 3 -16 8 -52 12 -80 3 -27 8 -53 10 -56 21 -35 20 -669 -1 -739 -3 -8 -7
-33 -10 -55 -10 -72 -17 -120 -22 -140 -2 -11 -5 -31 -7 -45 -8 -52 -68 -285
-86 -329 -10 -25 -18 -49 -18 -54 -1 -7 -35 -104 -49 -137 -3 -8 -7 -17 -8
-20 -8 -23 -32 -78 -63 -143 l-36 -79 -46 6 c-51 6 -67 9 -130 26 -51 14 -75
19 -110 25 -66 10 -198 37 -225 45 -16 5 -46 12 -65 15 -19 3 -60 10 -90 16
-30 6 -73 13 -95 15 -44 5 -80 12 -80 14 0 3 -40 10 -72 12 -18 2 -35 8 -37
14 -7 19 30 87 78 142 25 30 46 59 47 65 4 65 33 160 57 195 11 15 30 49 43
77 13 27 35 60 49 72 26 22 62 24 210 9 30 -3 96 -8 145 -11 113 -6 280 -21
280 -25 0 -2 14 -5 55 -13 14 -3 45 -12 70 -21 50 -17 80 -20 80 -8 0 12 36
53 41 47 3 -2 10 5 17 15 11 18 9 20 -15 21 -16 0 -37 2 -48 3 -60 9 -112 18
-125 21 -21 6 -139 14 -317 20 -209 7 -330 20 -350 36 -7 7 -13 27 -13 46 0
41 20 123 29 123 4 0 29 21 56 46 68 63 78 67 175 69 81 3 192 12 235 21 38 8
70 13 120 20 69 9 90 12 90 14 0 1 11 3 25 4 14 2 45 6 70 10 40 7 86 13 115
16 23 2 -48 50 -75 50 -15 0 -30 5 -32 11 -2 7 -17 7 -48 0 -50 -11 -86 -17
-145 -26 -22 -4 -49 -9 -60 -12 -11 -4 -36 -8 -55 -9 -19 -1 -35 -3 -35 -4 0
-3 -101 -13 -144 -14 -24 -1 -46 4 -48 10 -5 15 55 76 68 69 5 -4 8 -2 7 4 -2
5 45 61 105 123 59 62 132 139 162 172 l55 58 67 -5 c38 -3 86 -9 109 -12 l40
-5 0 35 c0 32 -3 36 -25 34 -67 -4 -111 2 -126 17 -15 15 -14 18 6 40 12 13
26 21 32 17 6 -3 7 -2 4 4 -4 5 3 19 13 31 11 12 20 25 20 31 0 5 13 20 29 33
26 23 27 27 15 49 -20 37 -17 48 19 57 38 11 37 11 42 -24z m-6061 -10 c4 -10
2 -13 -6 -8 -7 4 -8 3 -4 -4 12 -20 29 -13 23 9 -5 17 -3 18 10 7 9 -7 24 -12
34 -10 9 2 20 -2 23 -7 4 -6 13 -8 20 -5 7 3 16 -2 19 -10 4 -9 2 -16 -2 -16
-5 0 -12 6 -14 13 -3 7 -6 5 -6 -6 -1 -14 -5 -16 -20 -8 -10 6 -21 8 -24 5 -3
-3 -12 -2 -19 2 -7 5 -23 7 -35 5 -24 -3 -28 5 -17 33 8 20 10 20 18 0z m5916
4 c0 3 5 1 11 -5 8 -8 8 -17 -1 -33 -10 -18 -17 -21 -43 -15 -18 3 -43 9 -57
11 -27 6 -47 20 -39 29 3 3 18 6 32 7 15 1 27 5 27 9 0 4 16 3 35 -1 19 -4 35
-5 35 -2z m-6225 -38 c3 -5 1 -10 -4 -10 -6 0 -11 5 -11 10 0 6 2 10 4 10 3 0
8 -4 11 -10z m6055 -17 c0 -5 11 -9 25 -9 31 -2 95 -32 95 -44 0 -30 -12 -38
-41 -28 -16 5 -29 14 -29 20 0 5 -4 6 -10 3 -5 -3 -10 -2 -10 4 0 6 -6 8 -14
5 -14 -5 -49 39 -39 50 9 8 23 8 23 -1z m-6010 -7 c0 -3 -4 -8 -10 -11 -5 -3
-10 -1 -10 4 0 6 5 11 10 11 6 0 10 -2 10 -4z m237 -43 c1 -22 -1 -24 -8 -10
-6 9 -7 22 -4 27 9 14 10 13 12 -17z m-23 -9 c3 -8 2 -12 -4 -9 -6 3 -10 10
-10 16 0 14 7 11 14 -7z m5768 -4 c2 -6 14 -12 28 -15 14 -2 32 -13 41 -24 9
-11 19 -17 23 -14 13 13 5 -23 -9 -41 -15 -20 -15 -20 -16 0 -1 10 -1 26 0 34
2 12 0 13 -7 1 -5 -7 -7 -22 -4 -34 5 -20 5 -20 -28 -1 -48 28 -93 72 -85 84
3 6 11 8 16 5 5 -4 9 -1 9 4 0 14 27 14 32 1z m-28 -102 c50 -38 63 -64 35
-73 -19 -6 -79 22 -79 37 0 4 -7 8 -15 8 -8 0 -15 7 -15 15 0 8 -5 15 -11 15
-8 0 -8 5 1 15 18 22 35 19 84 -17z m-62 -77 c13 -18 18 -21 37 -21 17 0 17
-35 -1 -52 -10 -10 -18 -13 -18 -8 0 6 -3 9 -7 8 -12 -3 -53 26 -53 37 0 6
-10 19 -22 29 -20 18 -21 19 -3 32 20 15 46 6 67 -25z m-81 -44 c9 -7 28 -29
42 -50 24 -35 25 -40 10 -57 -17 -20 -43 -16 -43 7 0 8 -4 12 -9 9 -4 -3 -16
3 -26 14 -10 11 -14 20 -9 20 5 0 1 5 -8 11 -18 10 -24 40 -11 52 10 11 36 8
54 -6z m-2846 -25 c33 -6 71 -13 85 -17 14 -3 34 -7 45 -9 11 -3 43 -10 70
-16 28 -6 70 -15 95 -20 25 -5 77 -16 115 -25 104 -24 106 -24 147 -30 156
-24 201 -27 378 -29 174 -2 233 3 407 32 29 5 67 9 85 8 l32 -1 0 -115 c-2
-176 -4 -190 -33 -197 -53 -13 -358 -6 -461 11 -24 4 -109 17 -140 21 -8 1
-42 8 -75 14 -33 7 -71 14 -85 17 -14 2 -95 18 -180 34 -85 16 -168 31 -185
34 -16 3 -48 8 -70 11 -22 4 -53 8 -70 10 -16 2 -55 8 -85 12 -73 10 -497 10
-580 0 -93 -12 -111 -15 -145 -21 -16 -3 -57 -8 -90 -11 -33 -4 -64 -7 -70 -8
-10 -2 -14 40 -5 58 2 6 6 19 7 29 8 47 31 70 110 111 73 38 130 63 158 70 6
2 28 8 50 14 22 5 58 13 80 17 22 3 42 7 44 9 7 8 309 -4 366 -13z m2768 -60
c10 -10 15 -22 12 -25 -3 -4 -2 -5 2 -2 8 6 53 -43 53 -59 0 -8 -7 -19 -15
-26 -13 -11 -20 -11 -40 0 -14 7 -25 19 -25 27 0 7 -4 13 -10 13 -5 0 -10 5
-10 11 0 6 -7 17 -15 25 -8 9 -15 22 -15 31 0 9 6 13 15 9 8 -3 15 -1 15 4 0
16 15 12 33 -8z m-97 -68 c-5 -13 -3 -14 7 -6 10 9 20 0 45 -38 36 -55 38 -63
17 -80 -13 -11 -19 -9 -35 10 -11 12 -17 26 -15 30 3 4 -2 11 -11 14 -9 4 -14
13 -10 21 3 8 0 14 -7 12 -15 -3 -17 35 -2 45 15 11 18 10 11 -8z m-56 -58 c0
-8 7 -16 15 -20 8 -3 15 -12 15 -21 0 -8 5 -15 10 -15 18 0 32 -51 19 -66 -6
-8 -16 -14 -22 -14 -6 0 -8 2 -5 5 3 3 -8 20 -23 36 -16 17 -29 37 -29 45 0 8
-4 14 -9 14 -12 0 -23 29 -15 41 8 14 44 10 44 -5z m-3505 -43 c-3 -21 -8 -58
-9 -83 -2 -25 -8 -63 -15 -85 -17 -62 -13 -193 8 -276 10 -41 37 -115 59 -165
67 -150 78 -209 76 -399 -2 -131 -4 -147 -38 -255 -20 -63 -38 -119 -39 -125
-3 -9 -29 -68 -63 -140 -20 -42 -112 -165 -128 -171 -21 -8 -81 36 -101 73
-10 18 -21 33 -25 33 -23 0 -51 242 -30 255 5 3 8 18 8 33 0 15 9 59 22 97 37
117 48 162 41 173 -3 5 -49 31 -101 56 -98 49 -200 119 -200 137 0 6 -4 8 -8
5 -10 -6 -161 148 -189 191 -9 15 -20 30 -23 33 -6 6 -100 155 -118 188 -25
46 -55 128 -63 172 -4 25 -12 65 -18 90 -17 80 -11 88 77 89 180 3 300 11 409
26 27 4 64 8 83 10 81 7 147 19 243 45 56 15 112 28 125 29 22 1 23 -2 17 -36z
m-1661 -3 c-6 -6 -10 -3 -10 10 0 13 4 16 10 10 7 -7 7 -13 0 -20z m5097 -2
c7 -13 18 -29 26 -36 7 -8 10 -19 6 -25 -3 -7 -3 -9 2 -5 11 10 45 -36 45 -61
0 -21 -34 -46 -49 -36 -5 3 -15 21 -21 40 -6 19 -16 35 -21 35 -5 0 -9 8 -9
19 0 10 -7 24 -15 31 -18 15 -20 46 -2 53 22 9 26 7 38 -15z m-4966 -18 c16
-17 16 -20 3 -15 -9 4 -19 13 -22 21 -7 19 -2 18 19 -6z m39 12 c3 -5 -1 -9
-9 -9 -8 0 -12 4 -9 9 3 4 7 8 9 8 2 0 6 -4 9 -8z m-300 -10 c3 -5 -1 -9 -9
-9 -8 0 -12 4 -9 9 3 4 7 8 9 8 2 0 6 -4 9 -8z m5171 -59 c16 -32 33 -61 38
-64 5 -4 11 -20 13 -37 2 -21 -2 -32 -14 -37 -18 -7 -45 22 -35 38 3 6 2 7 -4
4 -12 -7 -73 103 -73 132 0 17 25 32 41 25 3 -2 18 -29 34 -61z m-5242 32 c-3
-9 -8 -14 -10 -11 -3 3 -2 9 2 15 9 16 15 13 8 -4z m127 11 c0 -2 -7 -7 -16
-10 -8 -3 -12 -2 -9 4 6 10 25 14 25 6z m486 -29 c20 -21 54 -109 54 -140 0
-19 -77 -28 -180 -22 -99 5 -119 10 -142 35 -39 41 1 102 93 144 49 23 147 13
175 -17z m4522 -41 c0 -5 4 -12 9 -15 18 -11 70 -116 67 -135 -6 -45 -24 -29
-77 69 -40 75 -46 97 -34 113 8 10 12 9 22 -5 7 -10 13 -22 13 -27z m-4414 18
c3 -8 2 -12 -4 -9 -6 3 -10 10 -10 16 0 14 7 11 14 -7z m-589 -4 c-3 -5 -12
-10 -18 -10 -7 0 -6 4 3 10 19 12 23 12 15 0z m2630 -10 c0 -1 23 -3 50 -5 99
-5 199 -20 315 -45 47 -10 99 -21 115 -24 35 -6 120 -23 155 -31 14 -3 41 -7
60 -10 19 -3 58 -9 86 -15 68 -14 258 -34 314 -32 8 0 85 3 171 7 l157 7 8
-23 c7 -24 10 -250 3 -279 -6 -25 -73 -45 -214 -65 -22 -4 -48 -8 -58 -11 -10
-3 -30 -7 -45 -9 -15 -2 -52 -9 -82 -15 -59 -13 -73 -15 -165 -25 -100 -11
-303 -6 -382 9 -11 3 -43 8 -70 12 -57 8 -53 7 -168 29 -49 9 -131 30 -183 46
-51 17 -102 32 -112 34 -10 2 -74 19 -142 39 -68 19 -136 37 -153 40 -16 2
-30 5 -30 6 0 8 -81 12 -252 13 -146 2 -205 5 -214 15 -7 6 -10 12 -7 12 3 0
0 26 -6 58 -11 52 -14 197 -5 207 3 2 27 7 54 10 28 3 61 8 75 10 14 3 52 7
85 11 33 3 69 8 80 10 11 2 65 7 120 10 55 3 101 6 102 7 2 2 338 -1 338 -3z
m2294 3 c-1 -5 2 -19 7 -33 4 -14 6 -27 5 -29 -2 -2 1 -7 6 -10 12 -9 59 -109
69 -146 10 -40 11 -65 4 -70 -12 -7 -33 22 -24 36 4 7 3 9 -2 6 -5 -3 -23 22
-38 56 -16 34 -40 84 -53 111 -30 65 -30 86 2 86 14 0 25 -3 24 -7z m-4933
-36 c6 -9 5 -9 -8 0 -8 7 -17 10 -20 7 -3 -2 -8 2 -12 11 -4 13 -2 14 14 5 10
-5 22 -16 26 -23z m36 19 c7 4 8 2 4 -5 -9 -13 -26 -5 -25 12 0 9 2 8 6 -1 2
-6 10 -9 15 -6z m4708 -6 c0 -5 6 -15 13 -22 18 -19 55 -105 102 -238 15 -41
31 -84 35 -95 39 -97 45 -126 29 -153 -8 -15 -18 -27 -23 -27 -5 0 -20 29 -33
65 -14 36 -29 74 -33 85 -5 11 -27 70 -50 130 -23 61 -45 119 -50 130 -5 11
-16 44 -25 74 -14 43 -15 55 -5 61 15 9 40 2 40 -10z m101 -27 c12 -27 26 -59
32 -73 6 -14 20 -37 30 -52 10 -16 15 -28 11 -28 -3 0 -1 -7 6 -15 7 -8 9 -15
4 -15 -5 0 -4 -4 2 -8 18 -12 45 -72 38 -84 -4 -6 -3 -8 3 -5 11 7 30 -37 28
-63 -1 -8 -3 -23 -3 -32 -3 -23 -32 -12 -32 12 0 10 -3 20 -7 22 -9 4 -55 107
-56 126 0 6 -4 12 -8 12 -5 0 -17 29 -17 43 0 1 -12 25 -25 52 -14 28 -32 74
-41 103 -13 45 -13 52 -1 52 8 0 24 -21 36 -47z m-4146 -2 c-4 -11 -2 -11 9
-2 9 7 17 8 20 2 9 -14 -4 -41 -21 -41 -9 0 -11 5 -7 13 4 7 -1 6 -12 -3 -10
-9 -26 -15 -34 -14 -8 1 -22 2 -31 3 -18 1 -32 48 -17 53 5 2 29 3 54 3 34 0
43 -3 39 -14z m4026 -188 c29 -76 54 -142 55 -148 1 -5 10 -28 20 -50 10 -22
18 -42 19 -45 1 -3 5 -13 9 -22 4 -9 9 -22 10 -30 2 -7 8 -25 14 -40 27 -66
-6 -218 -50 -226 -15 -3 -42 50 -52 98 -2 8 -6 22 -9 30 -28 74 -46 130 -41
130 4 0 2 6 -3 13 -10 11 -38 91 -48 133 -2 10 -14 46 -25 79 -11 32 -22 69
-24 81 -5 26 42 134 59 134 7 0 36 -62 66 -137z m-3988 96 c21 -22 22 -40 2
-33 -8 4 -15 2 -15 -3 0 -12 -82 -11 -96 2 -9 8 -9 14 0 24 8 12 8 13 -1 7 -9
-5 -11 -2 -7 9 9 23 93 18 117 -6z m-181 -94 c4 -27 10 -73 13 -102 3 -29 14
-84 24 -122 14 -52 16 -73 7 -80 -12 -9 -56 -17 -151 -27 -33 -3 -73 -7 -89
-9 -16 -2 -37 0 -47 5 -17 10 -56 111 -66 173 -3 18 -6 37 -8 42 -10 44 -16
86 -19 118 -3 52 7 55 184 53 l145 -1 7 -50z m4018 -65 c0 -5 5 -21 12 -37 6
-15 12 -32 13 -38 2 -5 14 -40 28 -77 15 -38 23 -68 19 -68 -4 0 -2 -4 3 -8
10 -7 51 -115 82 -217 8 -27 18 -57 21 -65 3 -8 7 -40 8 -71 2 -45 -2 -61 -20
-84 l-23 -29 -28 90 c-16 49 -30 95 -32 102 -6 23 -10 37 -16 52 -6 17 -65
211 -97 319 -22 76 -21 135 3 144 14 5 27 -1 27 -13z m-69 -124 c7 -22 13 -51
15 -64 1 -13 7 -29 12 -35 5 -7 17 -41 26 -77 9 -36 25 -93 35 -127 11 -35 17
-63 14 -63 -2 0 -1 -6 4 -12 4 -7 8 -22 8 -33 1 -11 6 -29 12 -40 6 -11 13
-35 16 -53 3 -19 8 -36 11 -40 3 -3 0 -12 -7 -20 -8 -10 -8 -13 -1 -9 28 17
25 -74 -3 -105 -21 -24 -43 -23 -43 2 0 11 -4 20 -8 20 -10 0 -33 110 -26 121
3 5 0 9 -6 9 -7 0 -10 6 -7 14 3 7 2 17 -3 22 -5 5 -11 20 -14 34 -2 14 -9 45
-15 70 -7 25 -14 56 -16 70 -3 14 -8 36 -12 50 -3 14 -7 30 -9 37 -1 6 -7 27
-13 45 -6 18 -13 49 -16 68 -2 19 -10 56 -16 82 -14 53 -1 82 29 71 15 -6 16
-5 2 13 -14 18 -14 18 2 5 10 -7 23 -32 29 -55z m-2341 0 c66 -8 115 -18 120
-25 3 -3 19 -7 35 -8 17 -1 89 -21 160 -43 72 -23 137 -43 145 -45 8 -2 51
-13 95 -24 44 -11 96 -22 115 -25 267 -37 305 -40 465 -40 166 0 287 8 385 24
115 19 124 21 215 40 136 29 144 30 159 15 13 -14 17 -58 20 -268 1 -78 -3
-110 -12 -116 -12 -7 -42 -7 -152 3 -30 3 -84 8 -120 10 -57 5 -111 10 -235
21 -142 13 -233 19 -430 29 -242 13 -622 17 -647 7 -15 -5 -29 -7 -32 -3 -5 9
-107 5 -151 -7 -16 -4 -49 -7 -72 -7 -24 1 -43 -2 -43 -5 0 -4 -10 -7 -22 -7
-62 -2 -85 -4 -113 -13 -45 -14 -95 -18 -101 -8 -3 5 -7 35 -9 67 -4 67 -12
112 -27 167 -6 22 -12 45 -14 50 -1 6 -8 24 -15 40 -6 17 -13 35 -14 41 -2 5
-11 28 -21 50 -25 52 -20 82 14 86 36 4 258 0 302 -6z m-1311 -13 c-4 -22 2
-33 14 -27 7 5 6 1 -3 -10 -13 -17 -14 -17 -20 0 -6 16 -7 16 -13 1 -7 -18
-47 -43 -47 -29 0 5 10 14 23 21 12 6 14 9 5 7 -11 -3 -17 0 -15 7 1 7 -6 11
-17 9 -11 -2 -15 1 -11 8 4 6 13 9 21 6 8 -3 14 -1 14 4 0 6 11 10 25 10 14 0
24 -3 24 -7z m3537 -30 c-4 -9 -3 -19 2 -22 6 -3 12 -24 15 -46 3 -22 14 -76
25 -120 11 -44 18 -83 16 -86 -2 -4 -1 -9 4 -11 4 -1 16 -34 25 -73 16 -63 21
-83 32 -135 2 -8 4 -15 5 -15 3 0 11 -49 13 -77 1 -14 5 -24 9 -22 8 5 22 -55
14 -63 -3 -4 -1 -12 4 -18 15 -18 -33 -70 -55 -61 -11 4 -15 13 -12 26 3 11 2
20 -3 20 -6 0 -16 40 -25 105 -2 11 -6 34 -10 50 -3 17 -8 44 -9 61 -2 16 -8
39 -14 49 -7 13 -7 26 -1 37 7 12 6 18 -1 18 -6 0 -10 8 -9 18 1 9 0 19 -1 22
-6 16 -14 60 -24 135 -4 28 -11 61 -16 75 -5 14 -11 45 -14 68 -2 24 -7 46
-10 49 -9 9 14 33 31 33 10 0 13 -6 9 -17z m-3607 -15 c-16 -31 -24 -37 -16
-13 7 20 7 20 -8 1 -18 -23 -29 -18 -12 5 10 13 26 23 45 28 1 1 -3 -9 -9 -21z
m3537 -28 c1 -8 5 -32 9 -54 4 -21 9 -47 11 -57 2 -11 6 -29 9 -41 2 -13 7
-34 10 -48 3 -14 7 -41 10 -60 8 -74 15 -117 26 -161 6 -26 12 -62 14 -80 2
-19 4 -34 5 -34 1 0 4 -11 5 -25 9 -67 12 -81 18 -87 11 -10 8 -81 -3 -88 -6
-4 -9 -9 -6 -13 2 -4 -5 -16 -15 -26 -20 -21 -24 -17 -34 39 -2 17 -9 55 -15
85 -5 30 -12 75 -15 99 -3 24 -8 48 -11 52 -3 5 1 9 8 9 9 0 9 3 -2 10 -8 5
-12 10 -8 10 4 0 3 14 -2 30 -5 17 -5 28 0 25 5 -3 12 -1 15 5 4 6 1 9 -5 8
-14 -3 -38 95 -41 168 -2 24 -6 49 -10 56 -4 6 -3 22 2 35 6 16 5 22 -1 18 -6
-3 -11 2 -11 12 -1 10 -3 34 -5 53 -5 52 4 82 23 78 9 -2 17 -10 19 -18z
m-3426 -12 c0 20 17 14 35 -14 16 -24 16 -26 -2 -39 -15 -11 -21 -11 -33 0 -8
7 -25 16 -37 19 -14 5 -20 12 -16 22 3 8 12 13 19 10 8 -3 14 0 14 7 0 8 4 6
10 -3 6 -10 10 -11 10 -2z m3276 -65 c6 -57 15 -181 19 -238 8 -141 17 -287
21 -340 10 -151 10 -176 2 -181 -5 -3 -6 -9 -3 -13 2 -5 -4 -16 -14 -25 -11
-10 -21 -14 -24 -9 -9 14 -17 105 -22 243 -3 74 -8 178 -10 230 -15 323 -16
360 -3 374 18 20 30 5 34 -41z m67 50 c5 -9 18 -100 22 -149 1 -17 4 -35 7
-40 3 -5 9 -40 13 -79 4 -38 9 -81 12 -95 3 -14 6 -41 8 -60 2 -19 4 -35 5
-35 1 0 3 -9 4 -20 2 -11 6 -44 10 -74 4 -30 10 -63 13 -75 6 -22 5 -82 -1
-126 -2 -14 -4 -31 -5 -37 0 -7 -8 -13 -17 -13 -8 0 -13 -4 -10 -9 3 -5 -1
-11 -9 -15 -17 -6 -24 14 -29 89 -3 28 -5 50 -6 50 -2 0 -6 44 -14 140 -3 39
-8 97 -12 130 -6 70 -12 167 -19 318 -5 89 -3 107 9 107 8 0 17 -3 19 -7z
m-3606 -74 c7 -9 37 -72 67 -139 30 -67 66 -140 80 -161 14 -21 26 -44 25 -51
0 -10 -2 -9 -6 1 -4 10 -7 11 -13 1 -6 -10 -49 -13 -171 -12 -189 1 -186 -1
-214 100 -9 31 -27 84 -40 118 -13 33 -26 76 -30 96 -7 34 -6 35 32 42 21 4
65 10 98 13 33 3 61 6 63 8 1 1 24 2 50 1 31 -1 51 -7 59 -17z m547 -203 c-2
-13 1 -14 12 -5 8 6 14 10 15 8 6 -33 4 -41 -13 -50 -12 -6 -23 -7 -27 -2 -7
11 -81 14 -81 4 0 -4 -7 -8 -15 -8 -20 0 -19 7 3 24 10 9 11 12 2 7 -12 -5
-13 -4 -3 6 10 11 15 11 29 -1 13 -11 18 -11 21 -1 3 6 8 10 12 7 5 -2 16 1
25 8 16 12 16 13 -3 13 -11 0 -17 -5 -14 -10 4 -5 1 -6 -7 -1 -7 4 -16 2 -21
-6 -6 -9 -9 -10 -9 -2 0 7 8 16 18 22 25 14 57 7 56 -13z m2126 -120 c19 -3
69 -8 110 -11 41 -2 98 -7 125 -10 28 -3 70 -8 95 -10 79 -8 134 -14 180 -19
24 -3 65 -8 90 -11 25 -3 56 -7 70 -10 14 -3 39 -8 56 -11 50 -9 54 -27 49
-201 -9 -324 -12 -293 23 -287 34 6 124 34 137 44 6 3 28 12 51 18 23 7 52 22
66 35 14 13 39 29 56 36 17 7 37 20 44 29 7 8 34 25 60 37 26 12 45 24 43 27
-6 6 92 98 105 98 4 0 18 15 30 34 15 26 26 34 42 31 12 -3 46 -7 77 -10 31
-3 67 -7 81 -10 13 -2 42 -7 65 -11 22 -3 60 -10 85 -15 25 -6 61 -12 80 -14
45 -6 89 -13 120 -20 14 -3 39 -8 55 -11 17 -2 48 -10 70 -16 22 -6 45 -12 50
-13 28 -3 91 -18 100 -24 6 -3 17 -6 25 -7 8 -2 39 -8 68 -15 40 -9 55 -10 64
-1 27 27 24 8 -9 -50 -19 -35 -43 -76 -53 -93 -11 -16 -27 -45 -36 -62 -9 -18
-20 -33 -25 -33 -5 0 -9 -5 -9 -10 0 -11 -57 -97 -115 -175 -128 -172 -355
-408 -509 -530 -21 -16 -43 -35 -50 -40 -37 -33 -95 -75 -104 -75 -6 0 -12 -4
-14 -9 -4 -10 -136 -99 -193 -130 -22 -12 -60 -33 -84 -46 -24 -14 -48 -25
-52 -25 -14 0 -69 52 -64 60 3 5 1 11 -4 15 -11 6 -227 53 -276 60 -16 2 -43
6 -60 9 -16 2 -48 7 -70 10 -22 4 -51 8 -65 11 -57 12 -78 15 -130 21 -30 3
-57 7 -60 9 -3 2 -44 7 -91 10 -150 12 -173 14 -224 19 -27 3 -77 9 -110 13
-33 5 -208 8 -390 7 -323 0 -416 -4 -745 -28 -41 -4 -111 -8 -155 -11 -80 -5
-145 -11 -220 -18 -22 -3 -77 -8 -123 -12 l-82 -7 -70 46 c-38 26 -87 63 -109
82 l-40 36 27 50 c15 28 33 53 40 55 6 3 12 9 12 14 0 4 16 36 36 69 l36 62
67 -7 c36 -4 77 -9 91 -11 79 -10 113 -14 185 -19 44 -3 105 -8 135 -10 64 -6
125 -6 475 0 255 4 386 9 495 20 30 3 91 8 135 11 139 8 209 13 250 19 22 3
63 8 90 10 28 2 75 8 105 12 83 11 509 2 630 -14 25 -3 59 -7 75 -8 59 -6 141
-14 203 -20 35 -4 73 -9 85 -11 12 -3 31 -7 42 -9 66 -11 100 -18 190 -39 66
-15 109 -20 127 -15 15 4 30 4 32 0 5 -8 66 -2 66 6 0 10 -30 33 -44 33 -8 0
-21 9 -29 20 -7 11 -29 22 -48 24 -64 9 -146 25 -185 35 -22 5 -68 13 -104 16
-36 4 -72 9 -82 10 -53 11 -114 19 -122 16 -5 -1 -30 2 -55 8 -25 5 -113 12
-196 15 -82 4 -181 9 -220 12 -85 8 -70 8 -340 -1 -223 -7 -243 -8 -395 -19
-47 -4 -113 -8 -148 -11 -35 -2 -66 -6 -70 -9 -8 -5 -125 -16 -232 -23 -41 -2
-187 -6 -325 -8 -137 -2 -277 -5 -311 -6 -34 -1 -66 1 -72 5 -6 4 -40 9 -74
12 -35 3 -81 10 -103 15 -21 6 -53 12 -70 14 -16 2 -57 7 -90 11 -33 3 -68 7
-78 8 -37 4 -37 21 2 81 21 33 51 82 67 109 16 27 39 65 50 85 24 39 37 43
114 29 25 -5 61 -11 80 -14 19 -3 37 -9 40 -13 3 -3 21 -6 40 -7 46 -2 136
-13 180 -24 58 -14 149 -22 260 -25 58 -2 161 -6 230 -10 145 -9 227 -9 435
-1 83 3 211 9 286 11 76 3 146 8 158 10 11 2 69 7 128 10 60 4 124 9 143 11
103 14 546 20 655 9 89 -9 222 -11 230 -3 4 3 2 16 -5 27 -9 18 -8 21 7 23 10
0 23 2 30 2 21 2 27 16 7 17 -151 9 -545 11 -634 4 -116 -10 -172 -13 -325
-19 -82 -4 -208 -9 -280 -12 -499 -21 -609 -21 -890 1 -27 2 -97 6 -154 10
-58 3 -108 8 -113 11 -4 3 -22 7 -40 9 -40 6 -56 9 -133 30 -180 49 -293 76
-317 77 -15 1 -29 7 -32 13 -2 7 14 53 37 102 68 145 80 178 91 248 8 50 30
105 45 110 9 4 30 9 46 11 17 2 41 6 55 9 14 3 43 8 65 11 22 3 56 10 75 14
37 8 1040 5 1100 -4z m-1899 -55 c-7 -12 -21 -21 -36 -21 -13 0 -27 -5 -30
-10 -4 -6 -10 -8 -15 -5 -4 3 -15 -6 -24 -20 -9 -14 -23 -25 -31 -25 -8 0 -19
-9 -25 -20 -9 -17 -19 -20 -51 -17 -22 2 -47 11 -55 19 -13 13 -12 18 6 41 16
20 26 25 38 18 21 -11 57 2 65 23 4 9 13 16 20 16 7 0 19 11 27 24 8 16 19 23
33 20 11 -2 27 1 36 6 11 6 21 4 35 -9 15 -15 16 -22 7 -40z m13 -92 c0 -8
-10 -31 -23 -51 -17 -29 -30 -38 -50 -38 -14 0 -34 -9 -44 -20 -9 -11 -23 -20
-31 -20 -7 0 -19 -7 -26 -15 -7 -8 -19 -15 -26 -15 -8 0 -33 -12 -57 -27 -23
-14 -60 -38 -82 -51 -22 -14 -55 -36 -74 -48 -23 -15 -40 -20 -49 -15 -34 19
-16 70 33 93 27 12 48 25 123 76 35 23 67 40 70 38 4 -2 21 5 37 15 17 11 38
22 48 25 9 4 17 12 17 19 0 13 28 30 43 26 5 -1 18 10 29 24 18 24 22 25 42
12 11 -8 21 -21 20 -28z m-290 -15 c19 -19 20 -25 2 -49 -8 -11 -20 -16 -29
-12 -9 3 -29 -6 -49 -23 -18 -17 -40 -30 -48 -30 -20 0 -40 19 -40 37 0 22 51
63 77 63 14 0 31 7 39 15 19 19 29 19 48 -1z m2156 -1329 c63 -3 129 -7 145
-10 33 -5 177 -22 265 -31 30 -3 71 -8 90 -11 19 -3 49 -7 65 -9 42 -5 73 -10
120 -19 22 -5 67 -9 100 -10 56 -2 74 -5 131 -18 12 -3 39 -8 60 -11 21 -4 43
-11 48 -16 6 -6 23 -10 38 -10 29 0 37 -13 16 -27 -7 -4 -15 -8 -18 -8 -3 -1
-18 -8 -35 -17 -119 -63 -452 -176 -600 -204 -22 -4 -47 -9 -55 -10 -16 -3
-99 -13 -165 -20 -22 -2 -60 -6 -85 -9 -53 -7 -379 -7 -465 -1 -33 3 -85 10
-115 16 -60 12 -123 19 -215 25 -33 2 -87 13 -120 26 -33 12 -70 23 -82 24
-12 2 -78 17 -146 34 -131 33 -253 79 -401 152 -123 61 -126 63 -126 71 0 5 0
11 0 15 -1 10 40 16 180 28 86 6 140 14 149 19 6 4 90 13 211 22 36 3 136 6
223 9 87 2 161 6 164 9 6 6 414 0 623 -9z"/>
<path d="M1562 5385 c15 -26 24 -33 33 -25 6 5 16 6 21 2 4 -4 2 1 -5 11 -14
18 -26 24 -16 8 3 -5 1 -12 -5 -16 -9 -5 -14 6 -12 26 0 3 -8 10 -18 17 -18
11 -18 9 2 -23z"/>
<path d="M1330 5371 c0 -6 4 -13 10 -16 6 -3 7 1 4 9 -7 18 -14 21 -14 7z"/>
<path d="M1372 5351 c16 -27 38 -39 38 -22 0 6 -4 10 -9 9 -5 -2 -17 6 -26 17
-17 19 -17 19 -3 -4z"/>
<path d="M1480 5310 c-9 -6 -10 -10 -3 -10 6 0 15 5 18 10 8 12 4 12 -15 0z"/>
<path d="M1508 5293 c6 -2 10 -9 7 -14 -4 -5 1 -6 10 -2 13 5 14 7 3 14 -7 5
-17 8 -23 8 -5 0 -4 -3 3 -6z"/>
<path d="M1156 5335 c6 -14 4 -16 -6 -10 -9 5 -11 4 -6 -3 8 -13 -5 -16 -20
-4 -5 4 -2 0 8 -9 9 -9 15 -19 13 -21 -3 -3 2 -5 10 -5 8 0 15 4 15 9 0 4 -5
8 -11 8 -5 0 -7 5 -4 10 4 6 10 8 15 5 4 -3 11 3 14 12 4 10 4 14 0 10 -4 -4
-13 -2 -21 5 -11 9 -12 7 -7 -7z"/>
<path d="M1116 5217 c3 -10 9 -15 12 -12 3 3 0 11 -7 18 -10 9 -11 8 -5 -6z"/>
<path d="M1062 5200 c7 -10 14 -17 17 -15 2 3 9 1 15 -5 8 -6 12 -3 12 9 0 12
-6 17 -18 13 -10 -2 -18 1 -18 7 0 6 -5 11 -10 11 -6 0 -5 -8 2 -20z"/>
<path d="M1044 5192 c3 -5 0 -13 -6 -15 -9 -4 -10 -6 -1 -6 17 -1 25 16 12 25
-7 4 -9 3 -5 -4z"/>
<path d="M1086 5145 c-11 -8 -15 -15 -9 -15 6 0 16 7 23 15 16 19 11 19 -14 0z"/>
<path d="M1037 5129 c7 -7 15 -10 18 -7 3 3 -2 9 -12 12 -14 6 -15 5 -6 -5z"/>
<path d="M1293 5055 c0 -8 4 -12 9 -9 5 3 6 10 3 15 -9 13 -12 11 -12 -6z"/>
<path d="M1341 5024 c0 -11 3 -14 6 -6 3 7 2 16 -1 19 -3 4 -6 -2 -5 -13z"/>
<path d="M1051 5002 c-7 -13 -6 -19 2 -19 7 0 13 9 13 19 0 10 -1 18 -3 18 -1
0 -7 -8 -12 -18z"/>
<path d="M950 4994 c0 -2 9 -8 20 -14 15 -8 18 -8 14 3 -4 11 -34 21 -34 11z"/>
<path d="M1021 4968 c24 -34 36 -38 14 -5 -8 13 -13 26 -10 29 3 2 -2 5 -9 5
-12 0 -11 -7 5 -29z"/>
<path d="M941 4973 c-1 -17 16 -25 25 -12 4 7 3 9 -4 5 -5 -3 -13 0 -15 6 -4
9 -6 10 -6 1z"/>
<path d="M975 4950 c-3 -5 -1 -10 4 -10 6 0 11 5 11 10 0 6 -2 10 -4 10 -3 0
-8 -4 -11 -10z"/>
<path d="M922 4925 c-7 -8 -9 -15 -4 -15 5 0 15 7 22 15 16 19 -1 19 -18 0z"/>
<path d="M997 4878 c19 -21 31 -25 14 -5 -6 8 -9 16 -6 19 3 2 -2 5 -10 5 -13
0 -13 -3 2 -19z"/>
<path d="M960 4876 c0 -2 8 -10 18 -17 15 -13 16 -12 3 4 -13 16 -21 21 -21
13z"/>
<path d="M950 4851 c0 -6 4 -13 10 -16 6 -3 7 1 4 9 -7 18 -14 21 -14 7z"/>
<path d="M1013 4835 c0 -8 4 -12 9 -9 5 3 6 10 3 15 -9 13 -12 11 -12 -6z"/>
<path d="M994 4778 c-4 -7 -3 -8 5 -4 6 4 20 2 29 -6 15 -12 16 -11 3 5 -16
20 -27 22 -37 5z"/>
<path d="M990 4748 c0 -4 7 -8 15 -8 8 0 15 4 15 8 0 5 -7 9 -15 9 -8 0 -15
-4 -15 -9z"/>
<path d="M950 4746 c0 -2 8 -10 18 -17 15 -13 16 -12 3 4 -13 16 -21 21 -21
13z"/>
<path d="M933 4717 c0 -8 6 -14 14 -14 9 0 10 4 2 14 -6 7 -12 13 -14 13 -1 0
-2 -6 -2 -13z"/>
<path d="M975 4579 c-4 -6 -5 -12 -2 -15 2 -3 7 2 10 11 7 17 1 20 -8 4z"/>
<path d="M880 4470 c-9 -6 -10 -10 -3 -10 6 0 15 5 18 10 8 12 4 12 -15 0z"/>
<path d="M506 4320 c3 -3 16 -5 29 -5 14 -1 22 2 19 5 -3 3 -16 5 -29 5 -14 1
-22 -2 -19 -5z"/>
<path d="M1355 3200 c-3 -5 -1 -10 4 -10 6 0 11 5 11 10 0 6 -2 10 -4 10 -3 0
-8 -4 -11 -10z"/>
<path d="M5315 450 c-3 -5 1 -10 10 -10 9 0 13 5 10 10 -3 6 -8 10 -10 10 -2
0 -7 -4 -10 -10z"/>
</g>
</svg>
